<svg width="444" height="144" viewBox="0 0 444 144" fill="none" xmlns="http://www.w3.org/2000/svg">
<path d="M202.019 64.4266L190.307 109.355H177.059L169.891 79.7866L162.467 109.355H149.219L137.827 64.4266H149.539L156.003 97.1306L164.003 64.4266H176.035L183.715 97.1306L190.243 64.4266H202.019ZM225.044 109.867C221.545 109.867 218.388 109.12 215.572 107.627C212.798 106.133 210.601 104 208.98 101.227C207.401 98.4532 206.612 95.2106 206.612 91.4986C206.612 87.8292 207.422 84.6079 209.044 81.8346C210.665 79.0186 212.884 76.8639 215.7 75.3706C218.516 73.8772 221.673 73.1306 225.172 73.1306C228.67 73.1306 231.828 73.8772 234.644 75.3706C237.46 76.8639 239.678 79.0186 241.3 81.8346C242.921 84.6079 243.732 87.8292 243.732 91.4986C243.732 95.1679 242.9 98.4106 241.236 101.227C239.614 104 237.374 106.133 234.516 107.627C231.7 109.12 228.542 109.867 225.044 109.867ZM225.044 100.395C227.134 100.395 228.905 99.6266 230.356 98.0906C231.849 96.5546 232.596 94.3572 232.596 91.4986C232.596 88.6399 231.87 86.4426 230.42 84.9066C229.012 83.3706 227.262 82.6026 225.172 82.6026C223.038 82.6026 221.268 83.3706 219.86 84.9066C218.452 86.3999 217.748 88.5972 217.748 91.4986C217.748 94.3572 218.43 96.5546 219.796 98.0906C221.204 99.6266 222.953 100.395 225.044 100.395ZM261.762 79.5946C263.042 77.6319 264.642 76.0959 266.562 74.9866C268.482 73.8346 270.615 73.2586 272.962 73.2586V84.8426H269.954C267.223 84.8426 265.175 85.4399 263.81 86.6346C262.444 87.7866 261.762 89.8346 261.762 92.7786V109.355H250.818V73.6426H261.762V79.5946ZM301.297 109.355L290.417 94.3786V109.355H279.473V61.9946H290.417V88.1706L301.233 73.6426H314.737L299.889 91.5626L314.865 109.355H301.297ZM331.259 61.9946V109.355H320.315V61.9946H331.259ZM376.95 73.6426L354.55 126.315H342.774L350.966 108.139L336.438 73.6426H348.662L356.918 95.9786L365.11 73.6426H376.95ZM396.716 109.867C393.601 109.867 390.828 109.333 388.396 108.267C385.964 107.2 384.044 105.749 382.636 103.915C381.228 102.037 380.438 99.9466 380.268 97.6426H391.084C391.212 98.8799 391.788 99.8826 392.812 100.651C393.836 101.419 395.094 101.803 396.588 101.803C397.953 101.803 398.998 101.547 399.724 101.035C400.492 100.48 400.876 99.7759 400.876 98.9226C400.876 97.8986 400.342 97.1519 399.276 96.6826C398.209 96.1706 396.481 95.6159 394.092 95.0186C391.532 94.4212 389.398 93.8026 387.692 93.1626C385.985 92.4799 384.513 91.4346 383.276 90.0266C382.038 88.5759 381.42 86.6346 381.42 84.2026C381.42 82.1546 381.974 80.2986 383.084 78.6346C384.236 76.9279 385.9 75.5839 388.076 74.6026C390.294 73.6212 392.918 73.1306 395.948 73.1306C400.428 73.1306 403.948 74.2399 406.508 76.4586C409.11 78.6772 410.604 81.6212 410.988 85.2906H400.876C400.705 84.0532 400.15 83.0719 399.212 82.3466C398.316 81.6212 397.121 81.2586 395.628 81.2586C394.348 81.2586 393.366 81.5146 392.684 82.0266C392.001 82.4959 391.66 83.1572 391.66 84.0106C391.66 85.0346 392.193 85.8026 393.26 86.3146C394.369 86.8266 396.076 87.3386 398.38 87.8506C401.025 88.5332 403.18 89.2159 404.844 89.8986C406.508 90.5386 407.958 91.6052 409.196 93.0986C410.476 94.5492 411.137 96.5119 411.18 98.9866C411.18 101.077 410.582 102.955 409.388 104.619C408.236 106.24 406.55 107.52 404.332 108.459C402.156 109.397 399.617 109.867 396.716 109.867ZM439.059 100.075V109.355H433.491C429.523 109.355 426.43 108.395 424.211 106.475C421.993 104.512 420.883 101.333 420.883 96.9386V82.7306H416.531V73.6426H420.883V64.9386H431.827V73.6426H438.995V82.7306H431.827V97.0666C431.827 98.1332 432.083 98.9012 432.595 99.3706C433.107 99.8399 433.961 100.075 435.155 100.075H439.059Z" fill="black"/>
<rect x="3.5" y="42.8546" width="119.136" height="96.9364" rx="30.5" fill="#A3D5FF" stroke="black" stroke-width="7"/>
<path d="M65.5909 39.3545C65.5909 36.4863 66.9023 33.7754 69.1512 31.9951L77.7 25.2273" stroke="black" stroke-width="8" stroke-linecap="round"/>
<circle cx="39.8591" cy="85.2682" r="18.6682" fill="black"/>
<circle cx="43.3909" cy="83.7546" r="6.05455" fill="white"/>
<circle cx="87.2863" cy="85.2682" r="18.6682" fill="black"/>
<circle cx="90.8182" cy="83.7546" r="6.05455" fill="white"/>
<path d="M49.4455 112.009L55.0728 115.024C60.3825 117.868 66.763 117.868 72.0727 115.024L77.7 112.009" stroke="black" stroke-width="5" stroke-linecap="round"/>
<circle cx="90.3136" cy="15.6409" r="15.6409" fill="black"/>
<circle cx="90.3136" cy="15.6409" r="5.55" fill="#A3D5FF"/>
</svg>
